<svg version="1.1" xmlns="http://www.w3.org/2000/svg" style="display: block;" viewBox="0 0 2048 2048" width="1024" height="1024" preserveAspectRatio="none">
<path transform="translate(0,0)" fill="rgb(18,69,114)" d="M 0 0 L 992.078 0 L 1058.46 0 L 2048 0 L 2048 995.322 L 2048 1053.64 L 2048 2048 L 1057.7 2048 L 993.388 2048 L 0 2048 L 0 1055.52 L 0 994.245 L 0 0 z"/>
<path transform="translate(0,0)" fill="rgb(244,244,238)" d="M 1058.46 0 L 2048 0 L 2048 995.322 C 2046.27 988.483 2044.15 946.135 2043.45 937.152 C 2041.05 908.994 2037.49 880.946 2032.79 853.08 C 2005.46 691.91 1939.77 539.677 1841.26 409.223 C 1695.62 215.755 1486.26 80.0183 1250.21 26.0187 C 1207.54 16.6105 1164.38 9.62494 1120.93 5.09543 C 1102.17 3.15883 1077.03 2.65914 1059.57 0.168131 L 1058.46 0 z"/>
<path transform="translate(0,0)" fill="rgb(244,244,238)" d="M 0 0 L 992.078 0 L 990.957 0.163543 C 972.365 2.73782 947.12 3.24161 927.461 5.13919 C 887.174 9.20743 847.139 15.4714 807.535 23.9032 C 570.288 75.6905 359.07 209.877 211.383 402.637 C 109.435 535.32 41.7956 691.104 14.4589 856.182 C 9.80024 883.963 6.30913 911.928 3.99473 940.003 C 2.91111 953.745 2.24367 982.453 0 994.245 L 0 0 z"/>
<path transform="translate(0,0)" fill="rgb(244,244,238)" d="M 1057.7 2048 C 1063.39 2046.84 1100.67 2044.78 1108.33 2044.17 C 1135.77 2042 1163.1 2038.58 1190.23 2033.95 C 1352.89 2007.18 1506.61 1941.29 1638.17 1841.96 C 1835.76 1693.5 1973.16 1478.74 2025.13 1237.12 C 2032.97 1198.94 2038.82 1160.38 2042.66 1121.59 C 2044.52 1101.46 2045.06 1073.66 2047.84 1054.66 L 2048 1053.64 L 2048 2048 L 1057.7 2048 z"/>
<path transform="translate(0,0)" fill="rgb(244,244,238)" d="M 0 1055.52 L 0.163082 1056.7 C 2.57816 1075.13 2.88345 1098.34 4.65343 1117.56 C 8.22735 1155.17 13.7822 1192.56 21.2947 1229.58 C 70.7844 1468.92 204.037 1682.74 397.09 1832.61 C 532.991 1938.16 693.329 2007.7 863.253 2034.8 C 888.808 2038.97 914.525 2042.08 940.339 2044.1 C 953.128 2045.04 982.089 2045.96 993.388 2048 L 0 2048 L 0 1055.52 z"/>
<path transform="translate(0,0)" fill="rgb(244,244,238)" d="M 996.671 45.8098 C 1536.89 30.7736 1987.04 456.466 2002.18 996.684 C 2017.31 1536.9 1591.7 1987.13 1051.49 2002.36 C 511.133 2017.6 60.7619 1591.86 45.6227 1051.5 C 30.4834 511.143 456.31 60.85 996.671 45.8098 z"/>
<path transform="translate(0,0)" fill="rgb(244,244,238)" d="M 920.799 262.337 C 924.372 262.149 928.534 261.614 931.837 262.643 L 932.73 263.67 C 926.622 276.46 918.69 292.553 908.472 302.804 C 875.415 334.052 830.52 354.864 791.16 378.304 C 732.516 413.227 700.04 464.101 720.488 534.465 C 725.039 443.395 786.109 373.906 877.874 364.515 C 917.442 307.055 972.93 280.015 1042.93 286.016 C 1083.1 289.564 1120.59 307.643 1148.39 336.863 C 1157.96 347.067 1161.41 353.876 1169.25 363.139 L 1170.34 364.413 C 1251.9 371.834 1313.18 432.039 1325.1 512.335 C 1326.19 519.667 1326.87 526.96 1327.54 534.334 C 1334.27 514.597 1334.39 494.151 1331.35 473.463 C 1321.51 402.228 1246.95 374.183 1192.61 341.437 C 1151.96 316.946 1134.5 306.228 1115.35 262.273 C 1118.3 262.168 1125.07 261.562 1127.39 263.059 C 1143.96 296.025 1173.32 317.678 1207.19 331.22 L 1199.99 310.142 C 1204.82 311.025 1209.76 311.157 1214.63 310.536 C 1236.3 356.865 1261.09 356.572 1301.68 387.169 C 1296.02 370.945 1293.16 357.445 1301.56 340.872 C 1307.37 329.574 1317.52 321.115 1329.68 317.428 C 1342.53 313.369 1356.47 314.726 1368.29 321.185 C 1406.6 342.307 1397.77 400.142 1353.65 409.343 C 1352.88 409.502 1352.1 409.65 1351.33 409.787 C 1343.3 440.602 1347.64 454.115 1353.09 485.183 C 1363.2 471.942 1374.78 459.889 1387.61 449.254 C 1389.63 452.102 1391.98 454.697 1394.62 456.982 C 1358.9 495.009 1358.9 514.682 1339.66 560.872 C 1334.31 573.697 1324.39 588.174 1317.25 600.271 C 1311.45 610.081 1306.22 622.366 1300.1 631.749 C 1282.04 659.452 1248.92 688.409 1216.65 697.55 C 1216.82 694.063 1216.94 693.492 1217.66 690.24 C 1218.96 675.033 1219.61 640.973 1211.19 628.137 L 1209.34 627.304 C 1205.91 630.516 1205.86 657.381 1205.38 663.74 C 1204.66 674.676 1203.14 685.545 1200.83 696.26 L 1198.5 705.375 C 1187.68 707.474 1179.53 708.586 1168.66 709.854 C 1142.8 743.769 1126.12 757.878 1086.36 775.172 C 1080.88 777.73 1075.32 779.836 1069.4 781.159 L 1067.97 781.203 C 1048.43 781.984 1029.47 789.126 1008.35 785.391 C 1003.82 784.59 979.966 780.421 978.349 780.889 L 977.938 781.932 C 975.619 780.362 965.066 776.801 961.546 775.478 C 923.319 759.136 903.505 742.429 879.205 709.386 C 867.457 708.385 860.381 707.763 849.279 703.98 L 847.267 695.227 C 844.725 683.37 843.038 671.345 842.221 659.245 C 841.785 652.193 842.233 632.094 837.978 627.402 L 836.375 628.034 C 828.222 642.724 828.556 673.536 830.224 689.929 L 831.358 698.115 C 792.027 681.727 768.331 664.897 745.05 627.139 C 739.383 618.534 735.087 604.593 729.429 596.461 C 711.232 570.307 700.498 546.49 691.258 516.097 C 684.674 494.443 668.721 473.675 653.252 456.837 C 656.01 454.41 658.449 451.643 660.511 448.604 C 675.176 462.214 682.44 469.836 695.036 485.375 C 700.955 451.915 703.785 443.511 697.082 410.195 C 650.232 399.489 640.394 341.36 680.797 320.657 C 692.851 314.477 706.914 313.517 719.696 318.002 C 731.72 322.144 741.536 331.011 746.876 342.554 C 754.235 358.588 751.352 372.272 745.896 387.781 C 784.418 358.078 811.031 357.439 833.866 311.392 C 838.633 311.125 843.403 310.912 848.176 310.752 C 845.512 318.336 842.965 324.457 839.763 331.85 C 876.898 313.887 902.758 300.311 920.799 262.337 z"/>
<path transform="translate(0,0)" fill="rgb(122,172,82)" d="M 920.799 262.337 C 924.372 262.149 928.534 261.614 931.837 262.643 L 932.73 263.67 C 926.622 276.46 918.69 292.553 908.472 302.804 C 875.415 334.052 830.52 354.864 791.16 378.304 C 732.516 413.227 700.04 464.101 720.488 534.465 C 725.039 443.395 786.109 373.906 877.874 364.515 C 917.442 307.055 972.93 280.015 1042.93 286.016 C 1083.1 289.564 1120.59 307.643 1148.39 336.863 C 1157.96 347.067 1161.41 353.876 1169.25 363.139 L 1170.34 364.413 C 1251.9 371.834 1313.18 432.039 1325.1 512.335 C 1326.19 519.667 1326.87 526.96 1327.54 534.334 C 1334.27 514.597 1334.39 494.151 1331.35 473.463 C 1321.51 402.228 1246.95 374.183 1192.61 341.437 C 1151.96 316.946 1134.5 306.228 1115.35 262.273 C 1118.3 262.168 1125.07 261.562 1127.39 263.059 C 1143.96 296.025 1173.32 317.678 1207.19 331.22 L 1199.99 310.142 C 1204.82 311.025 1209.76 311.157 1214.63 310.536 C 1236.3 356.865 1261.09 356.572 1301.68 387.169 C 1296.02 370.945 1293.16 357.445 1301.56 340.872 C 1307.37 329.574 1317.52 321.115 1329.68 317.428 C 1342.53 313.369 1356.47 314.726 1368.29 321.185 C 1406.6 342.307 1397.77 400.142 1353.65 409.343 C 1352.88 409.502 1352.1 409.65 1351.33 409.787 C 1343.3 440.602 1347.64 454.115 1353.09 485.183 C 1363.2 471.942 1374.78 459.889 1387.61 449.254 C 1389.63 452.102 1391.98 454.697 1394.62 456.982 C 1358.9 495.009 1358.9 514.682 1339.66 560.872 C 1334.31 573.697 1324.39 588.174 1317.25 600.271 C 1311.45 610.081 1306.22 622.366 1300.1 631.749 C 1282.04 659.452 1248.92 688.409 1216.65 697.55 C 1216.82 694.063 1216.94 693.492 1217.66 690.24 C 1256.85 670.187 1276.4 655.673 1299.21 617.749 C 1284.13 616.401 1272.54 616.038 1257.91 611.097 C 1219.25 598.035 1187.38 574.888 1169.96 537.841 C 1207.27 532.386 1253.25 555.65 1279.59 580.679 C 1289.15 589.765 1295.86 599.289 1302.86 610.367 C 1306.42 602.784 1309.46 594.965 1311.95 586.966 C 1324.01 547.278 1320.88 500.087 1301.32 463.25 C 1271.51 506.029 1223.47 537.651 1169.65 532.63 C 1194.93 484.672 1242.59 456.941 1296.18 453.257 C 1273.39 413.561 1239.22 387.877 1194.23 376.016 C 1183.89 373.29 1169.82 375.728 1163.16 368.973 L 1160.23 364.76 C 1132 319.311 1080.99 294.802 1028.53 292.821 C 1036.47 306.352 1041.93 321.186 1044.67 336.631 C 1051.74 374.291 1046.25 411.102 1024.39 442.813 C 1014.43 432.12 1009.03 419.183 1005.36 405.183 C 995.338 367.252 1000.59 326.903 1019.99 292.801 C 960.025 294.343 923.064 319.565 887.242 364.961 L 883.672 369.071 L 881.504 371.391 C 870.789 373.183 858.092 374.801 847.879 377.726 C 811.137 388.246 780.936 410.39 758.939 441.381 C 756.129 445.42 753.462 449.556 750.942 453.781 C 790.378 454.567 830.313 473.446 857.797 501.599 C 863.969 507.921 875.717 522.778 877.795 531.295 L 877.221 533.085 C 862.022 538.132 824.15 526.301 809.829 518.761 C 779.911 503.01 765.678 489.651 746.618 462.682 C 724.937 508.36 723.037 550.086 740.17 597.852 C 741.808 602.327 743.535 606.769 745.351 611.174 C 769.451 572.267 799.714 552.37 844.54 540.341 C 851.448 538.488 869.663 535.298 876.008 538.303 C 876.925 540.455 876.515 541.957 875.367 544.077 C 850.402 590.151 799.344 615.548 749.065 617.771 C 768.017 653.233 794.908 672.973 830.224 689.929 L 831.358 698.115 C 792.027 681.727 768.331 664.897 745.05 627.139 C 739.383 618.534 735.087 604.593 729.429 596.461 C 711.232 570.307 700.498 546.49 691.258 516.097 C 684.674 494.443 668.721 473.675 653.252 456.837 C 656.01 454.41 658.449 451.643 660.511 448.604 C 675.176 462.214 682.44 469.836 695.036 485.375 C 700.955 451.915 703.785 443.511 697.082 410.195 C 650.232 399.489 640.394 341.36 680.797 320.657 C 692.851 314.477 706.914 313.517 719.696 318.002 C 731.72 322.144 741.536 331.011 746.876 342.554 C 754.235 358.588 751.352 372.272 745.896 387.781 C 784.418 358.078 811.031 357.439 833.866 311.392 C 838.633 311.125 843.403 310.912 848.176 310.752 C 845.512 318.336 842.965 324.457 839.763 331.85 C 876.898 313.887 902.758 300.311 920.799 262.337 z"/>
<path transform="translate(0,0)" fill="rgb(244,244,238)" d="M 726.322 405.042 L 727.299 405.317 C 726.109 408.286 718.101 417.266 715.552 420.284 C 713.957 417.729 712.586 414.518 713.236 411.517 C 715.672 408.269 722.155 406.583 726.322 405.042 z"/>
<path transform="translate(0,0)" fill="rgb(244,244,238)" d="M 1319.42 404.624 C 1324.68 406.039 1329.81 406.943 1334.14 410.124 C 1335.87 413.477 1335.15 412.757 1333.67 417.738 L 1332.07 418.555 C 1327.37 414.616 1323.38 409.378 1319.42 404.624 z"/>
<path transform="translate(0,0)" fill="rgb(122,172,82)" d="M 1010.77 449.381 L 1017.34 449.378 C 1019.29 450.303 1021.62 451.929 1023.63 451.653 C 1079.01 444.044 1144.31 483.314 1164.67 534.445 C 1145.48 585.716 1092.78 619.701 1038.83 622.83 C 1034.83 623.063 1027.62 618.888 1023.4 619.019 C 1004.72 625.212 983.768 620.089 964.852 612.782 C 937.253 602.108 913.225 583.864 895.531 560.145 C 891.814 554.431 888.661 548.154 885.459 542.12 C 881.539 530.367 890.92 517.027 898.185 508.195 C 927.92 472.045 964.62 454.41 1010.77 449.381 z"/>
<path transform="translate(0,0)" fill="rgb(244,244,238)" d="M 1037.05 475.496 C 1040.37 477.413 1051.23 491.45 1055.86 495.379 C 1085.56 520.545 1107.27 528.981 1143.96 535.945 C 1125.3 538.683 1109.44 543.97 1092.57 552.152 C 1070.84 562.451 1054.35 577.333 1038.85 595.25 C 1052.45 552.307 1054.22 518.208 1037.05 475.496 z"/>
<path transform="translate(0,0)" fill="rgb(244,244,238)" d="M 903.666 536.06 C 948.66 529.716 980.909 510.244 1009.84 475.901 C 996.799 515.892 993.839 547.365 1008.25 587.674 L 1004.81 589.038 C 981.212 560.171 940.514 540.745 903.666 536.06 z"/>
<path transform="translate(0,0)" fill="rgb(158,208,166)" d="M 1022.57 468.595 C 1028.84 473.776 1033.79 488.132 1036 495.899 C 1046.14 531.402 1043.38 569.99 1025.27 602.491 L 1024.36 602.729 C 1020.74 600.171 1016.39 588.401 1014.85 583.896 C 1002.11 545.948 1004.89 504.506 1022.57 468.595 z"/>
<path transform="translate(0,0)" fill="rgb(158,208,166)" d="M 1150.18 543.412 L 1151.47 543.81 L 1151.89 545.421 C 1128.84 586.576 1085.33 610.65 1039.04 614.131 L 1037.99 613.529 L 1037.57 611.886 C 1058.89 573.083 1107.35 548.255 1150.18 543.412 z"/>
<path transform="translate(0,0)" fill="rgb(158,208,166)" d="M 894.772 543.78 C 937.331 543.848 992.969 575.666 1012.12 614.157 C 962.133 611.267 921.116 586.447 894.772 543.78 z"/>
<path transform="translate(0,0)" fill="rgb(158,208,166)" d="M 1004.75 458.408 C 1007.34 457.996 1007.25 458.08 1009.87 458.57 C 1010.28 462.063 1008.68 464.654 1006.42 467.577 C 979.021 503.14 946.208 520.7 903.229 528.178 C 900.715 528.658 898.477 528.775 895.94 528.971 L 895.223 528.071 C 896.573 523.536 903.134 514.482 906.291 510.789 C 931.237 481.604 966.64 462.215 1004.75 458.408 z"/>
<path transform="translate(0,0)" fill="rgb(158,208,166)" d="M 1037.86 458.233 C 1079.93 460.511 1135.07 487.837 1152.36 528.062 C 1119.71 526.404 1087.36 512.088 1063.02 490.41 C 1055.85 484.026 1039.61 468.032 1037.86 458.233 z"/>
<path transform="translate(0,0)" fill="rgb(226,244,207)" d="M 1004.81 589.038 L 1008.25 587.674 C 1010.8 593.213 1013.03 598.276 1016.12 603.546 C 1012.07 598.586 1008.57 594.221 1004.81 589.038 z"/>
<path transform="translate(0,0)" fill="rgb(122,172,82)" d="M 1023.5 629.221 C 1042.63 651.193 1048.53 689.314 1046.72 717.523 C 1045.2 741.22 1039.79 757.224 1029.53 778.096 C 1084.37 773.78 1129.06 753.323 1160.67 706.565 L 1162.88 703.933 C 1168.1 701.624 1192.12 698.357 1200.83 696.26 L 1198.5 705.375 C 1187.68 707.474 1179.53 708.586 1168.66 709.854 C 1142.8 743.769 1126.12 757.878 1086.36 775.172 C 1080.88 777.73 1075.32 779.836 1069.4 781.159 L 1067.97 781.203 C 1048.43 781.984 1029.47 789.126 1008.35 785.391 C 1003.82 784.59 979.966 780.421 978.349 780.889 L 977.938 781.932 C 975.619 780.362 965.066 776.801 961.546 775.478 C 923.319 759.136 903.505 742.429 879.205 709.386 C 867.457 708.385 860.381 707.763 849.279 703.98 L 847.267 695.227 C 858.184 698.48 879.775 700.939 885.652 703.321 L 887.73 705.903 C 917.524 753.604 966.088 774.252 1020.22 778.253 C 999.542 741.043 996.123 705.426 1006.87 663.641 C 1009.64 652.876 1016.43 637.82 1023.5 629.221 z"/>
<path transform="translate(0,0)" fill="rgb(122,172,82)" d="M 885.459 542.12 C 888.661 548.154 891.814 554.431 895.531 560.145 L 893.719 564.24 C 910.739 601.874 908.961 665.264 881.864 698.182 C 860.043 674.623 855.457 631.127 859.534 600.651 C 861.478 586.12 869.008 554.063 881.355 544.651 L 885.459 542.12 z"/>
<path transform="translate(0,0)" fill="rgb(226,244,207)" d="M 885.459 542.12 C 888.661 548.154 891.814 554.431 895.531 560.145 L 893.719 564.24 C 890.101 556.127 887.726 551.117 881.355 544.651 L 885.459 542.12 z"/>
<path transform="translate(0,0)" fill="rgb(46,150,195)" d="M 881.504 371.391 C 909.077 409.924 915.875 490.632 881.719 526.197 C 847.059 487.983 853.069 412.083 881.504 371.391 z"/>
<path transform="translate(0,0)" fill="rgb(46,150,195)" d="M 887.242 364.961 C 932.489 368.098 971.318 384.56 1002.46 418.757 C 1009.27 426.237 1016.69 437.507 1020.04 447.078 L 1019.17 448.809 L 1017.34 449.378 L 1010.77 449.381 C 973.46 447.849 925.372 423.371 901.796 394.68 C 895.516 387.038 889.252 377.367 883.672 369.071 L 887.242 364.961 z"/>
<path transform="translate(0,0)" fill="rgb(46,150,195)" d="M 1160.67 706.565 C 1118.83 704.184 1082.58 689.406 1052.05 660.147 C 1045.89 654.244 1029.46 633.723 1028.28 625.899 L 1029.58 624.385 C 1040.59 621.001 1070.3 628.712 1081.03 632.9 C 1116.32 646.662 1146.93 668.892 1162.88 703.933 L 1160.67 706.565 z"/>
<path transform="translate(0,0)" fill="rgb(46,150,195)" d="M 1163.16 368.973 C 1136.21 417.153 1087.72 445.604 1032.29 448.714 C 1029.82 448.852 1029.65 448.692 1028.23 447.102 C 1029.78 440.17 1038.95 426.815 1043.73 421.382 C 1075.71 385 1113.41 369.176 1160.23 364.76 L 1163.16 368.973 z"/>
<path transform="translate(0,0)" fill="rgb(46,150,195)" d="M 885.652 703.321 C 905.921 655.307 969.691 622.658 1020.45 624.111 C 997.562 672.55 941.168 707.048 887.73 705.903 L 885.652 703.321 z"/>
<path transform="translate(0,0)" fill="rgb(122,172,82)" d="M 1165.73 544.41 C 1169.29 546.158 1173.9 553.731 1175.66 557.495 C 1195.75 600.311 1195.38 659.351 1167.55 698.524 C 1156.41 691.86 1146.69 661.152 1144.89 648.85 C 1139.47 611.81 1143.6 575.42 1165.73 544.41 z"/>
<path transform="translate(0,0)" fill="rgb(46,150,195)" d="M 1166.47 373.581 C 1177.31 381.201 1186.22 414.31 1187.92 427.036 C 1192.56 461.854 1188.5 497.746 1166.89 526.441 C 1133.78 492.91 1136.88 409.221 1166.47 373.581 z"/>
<path transform="translate(0,0)" fill="rgb(172,109,62)" d="M 487.644 1084.07 C 502.181 1083.62 518.552 1083.26 532.989 1083.94 C 514.375 1121.57 493.731 1159.97 474.309 1197.31 C 446.385 1250.81 418.77 1304.48 391.465 1358.3 C 400.564 1359.5 410.963 1359.76 420.175 1359.9 C 503 1361.15 582.845 1338.17 664.563 1329.17 C 754.281 1319.3 850.765 1336.09 928.751 1383.8 C 965.798 1407.92 997.093 1431.14 1020.66 1469.73 L 1023.48 1472.5 C 1025.86 1471.85 1024.92 1472.42 1026.44 1471.06 C 1050.69 1431.75 1080.83 1408.87 1118.69 1384.01 C 1201.36 1335.21 1292.32 1319.28 1387.24 1329.55 C 1473.82 1338.91 1568.96 1368.55 1656.34 1358.02 C 1611.33 1266.32 1560.79 1175.76 1514.56 1084.69 C 1528.89 1083.8 1546.41 1084.23 1560.79 1084.5 L 1714.68 1366.24 L 1759.53 1448.7 C 1768.19 1464.67 1778.33 1482.55 1786.09 1498.84 L 1117.34 1499.07 C 1115.13 1501.45 1112.86 1503.79 1110.55 1506.07 C 1088.98 1527.09 1049.61 1533.44 1020.92 1532.65 C 984.173 1531.63 956.418 1525.6 930.45 1499.05 L 260.888 1498.86 C 326.047 1382.16 387.918 1263.19 453.097 1146.45 C 464.636 1125.78 475.526 1104.37 487.644 1084.07 z"/>
<path transform="translate(0,0)" fill="rgb(244,244,238)" d="M 376.241 1386.99 C 423.577 1387.54 468.955 1385.28 515.772 1380.02 C 620.32 1368.27 724.667 1351.57 828.501 1378.15 C 870.007 1388.77 909.249 1402.49 946.86 1423.47 C 951.222 1425.91 962.317 1431.43 964.747 1435.49 C 985.73 1445.55 997.041 1454.89 1015.32 1468.35 C 1017.51 1469.97 1018.6 1470.44 1020.66 1469.73 L 1023.48 1472.5 C 1025.86 1471.85 1024.92 1472.42 1026.44 1471.06 C 1032.51 1469.91 1054.29 1451.89 1061.88 1447.23 C 1067.64 1443.69 1073.78 1440.65 1079.52 1437.42 C 1090.77 1426.39 1133.54 1407.01 1149.03 1400.68 C 1242.51 1362.11 1343.56 1358.21 1442.93 1369.67 C 1500.68 1376.34 1558.93 1384.59 1617.09 1386.94 C 1635.04 1387.66 1653.73 1387.15 1671.77 1386.96 C 1684.86 1409.33 1703.72 1442.97 1715.34 1465.68 L 1297.99 1465.61 L 1169.27 1465.57 C 1147.75 1465.57 1115.38 1464.67 1094.61 1466.61 C 1070.12 1499.84 1035.64 1499.76 996.938 1494.9 C 977.847 1492.51 965.63 1482.44 955.068 1466.79 C 937.67 1464.83 905.202 1465.58 887.04 1465.58 L 764.09 1465.51 C 620.027 1464.77 475.96 1464.95 331.898 1466.04 C 346.103 1439.73 361.53 1413.08 376.241 1386.99 z"/>
<path transform="translate(0,0)" fill="rgb(93,92,92)" d="M 888.913 1416.59 C 785.517 1383.18 709.334 1378.41 600.175 1393.56 C 544.419 1401.3 486.755 1411.61 430.447 1410.43 C 423.34 1410.28 387.408 1409.64 384.983 1405.4 C 387.821 1401.71 428.21 1402.88 434.999 1402.69 C 461.422 1401.88 487.805 1400.05 514.087 1397.2 C 564.758 1391.88 616.168 1382.77 666.711 1378.68 C 769.352 1370.56 872.287 1390.18 964.747 1435.49 C 985.73 1445.55 997.041 1454.89 1015.32 1468.35 C 1017.51 1469.97 1018.6 1470.44 1020.66 1469.73 L 1023.48 1472.5 C 1025.86 1471.85 1024.92 1472.42 1026.44 1471.06 C 1032.51 1469.91 1054.29 1451.89 1061.88 1447.23 C 1067.64 1443.69 1073.78 1440.65 1079.52 1437.42 C 1086.44 1434.72 1095.71 1429.96 1102.86 1426.83 C 1118.92 1419.85 1135.24 1413.47 1151.78 1407.71 C 1230.09 1380.58 1313.45 1371.12 1395.85 1380.03 C 1442.07 1384.63 1489.1 1392.89 1535.34 1397.77 C 1564.01 1400.61 1592.79 1402.31 1621.6 1402.85 C 1629.04 1403.01 1660.35 1400.97 1663.86 1405.2 C 1661.3 1408.44 1650.28 1408.51 1645.64 1408.9 C 1576.89 1414.68 1508.82 1402.43 1440.95 1392.89 C 1360.44 1381.28 1277.15 1383.07 1198.31 1404.19 C 1182.02 1408.55 1165.03 1414.71 1148.97 1420.08 L 1153.47 1421.01 C 1207.39 1405.38 1283.77 1398.22 1340.14 1398.27 C 1344.96 1398.28 1359.52 1398.32 1363.51 1400.05 L 1364.89 1401.98 C 1362.65 1405.16 1345.34 1404.51 1340.29 1404.67 C 1327.12 1404.97 1313.97 1405.67 1300.85 1406.78 C 1254.76 1410.82 1209.04 1418.29 1164.07 1429.13 L 1164.15 1431.5 C 1181.1 1424.87 1273.32 1419.47 1294.76 1419.16 C 1361.23 1418.2 1430.55 1422.21 1497.47 1423.28 L 1636.89 1424.47 C 1643.93 1424.58 1674.04 1424.59 1677.85 1425.83 C 1666.16 1435.18 1358.3 1426.35 1315.17 1428.12 C 1283.68 1429.42 1237.19 1429.99 1203.6 1435.65 C 1191.05 1437.76 1176.47 1438.38 1163.2 1442.99 L 1543.57 1442.87 C 1577 1443.03 1610.43 1443.44 1643.86 1444.08 C 1659.05 1444.33 1688.11 1444.18 1702.27 1446.69 C 1691.75 1448.62 1669.95 1448.34 1658.32 1448.45 L 1581.97 1448.97 L 1308.34 1450.59 C 1266.86 1450.52 1225.39 1451.06 1183.93 1452.19 C 1153.25 1453.14 1110.51 1452.86 1081.55 1465.12 C 1071.49 1470.05 1058.55 1483.48 1046.67 1482.77 C 1027.1 1481.61 1001.68 1486.25 983.646 1477.33 C 976.926 1474.01 972.141 1465.75 964.012 1463.24 C 939.816 1455.76 914.413 1454.73 889.317 1453.28 C 832.021 1450.45 774.64 1450.76 717.319 1450.51 L 489.291 1449.33 C 477.555 1449.24 353.007 1448.71 350.6 1446.02 C 358.462 1443.24 472.829 1442.99 488 1442.85 L 721.555 1440.98 C 777.921 1440.83 831.076 1440.49 887.396 1443.18 C 872.652 1439.44 855.901 1437.34 840.838 1435.26 C 781.921 1427.11 720.566 1427.8 661.092 1428.55 C 598.811 1429.33 537.289 1430.44 474.902 1430.13 C 453.659 1429.99 432.421 1429.48 411.196 1428.59 C 398.811 1428.15 383.577 1427.98 371.533 1426.33 C 378.807 1423.11 510.743 1423.6 532.926 1423.49 C 608.076 1423.1 689.066 1416.85 763.934 1419.31 C 793.195 1420.24 822.399 1422.5 851.456 1426.08 C 863.655 1427.47 876.163 1429.71 888.228 1430.81 C 830.248 1412.6 757.307 1406.96 696.72 1404.6 C 692.92 1404.45 686.629 1404.69 683.53 1402.95 L 683.237 1401.12 C 683.446 1400.94 683.656 1400.76 683.866 1400.58 C 729.802 1390.99 849.827 1409.49 885.555 1418.54 L 888.913 1416.59 z"/>
<path transform="translate(0,0)" fill="rgb(212,211,210)" d="M 888.913 1416.59 C 896.581 1418.88 899.561 1420.03 906.741 1423.7 L 885.555 1418.54 L 888.913 1416.59 z"/>
<path transform="translate(0,0)" fill="rgb(159,159,160)" d="M 1164.15 1431.5 C 1160.88 1432.32 1157.68 1433.17 1154.68 1432.18 C 1157.2 1429.93 1160.59 1429.79 1164.07 1429.13 L 1164.15 1431.5 z"/>
<path transform="translate(0,0)" fill="rgb(159,159,160)" d="M 1137.01 1425.46 C 1141.35 1422.75 1144.23 1421.86 1148.97 1420.08 L 1153.47 1421.01 C 1148.04 1422.84 1142.57 1424.08 1137.01 1425.46 z"/>
<path transform="translate(0,0)" fill="rgb(18,69,114)" d="M 621.866 522.324 C 672.078 559.765 698.683 603.201 706.324 665.368 C 715.907 743.33 729.706 853.747 797.797 904.116 C 853.531 945.345 923.507 944.593 983.66 985.822 C 976.723 930.237 927.651 912.658 884.442 888.103 C 872.618 881.384 860.697 874.204 849.831 866.376 C 815.062 841.328 790.802 802.642 785.278 759.982 C 784.503 753.994 783.939 748.908 785.274 742.838 L 786.627 741.804 C 791.536 744.975 793.381 755.168 795.281 760.702 C 799.743 773.702 805.184 785.23 811.951 797.217 C 820.229 811.83 830.827 825 843.33 836.213 C 873.841 863.279 905.354 872.26 939.966 889.278 C 933.678 861.919 928.424 829.356 907.236 809.139 C 849.521 754.067 745.998 733.165 725.783 646.367 C 724.162 639.406 720.275 620.602 725.252 614.976 L 726.5 615.101 C 731.046 622.705 737.163 645.576 742.232 656.848 C 758.881 693.867 802.348 721.476 838.752 736.116 C 836.337 725.392 832.234 708.825 831.358 698.115 L 830.224 689.929 C 828.556 673.536 828.222 642.724 836.375 628.034 L 837.978 627.402 C 842.233 632.094 841.785 652.193 842.221 659.245 C 843.038 671.345 844.725 683.37 847.267 695.227 L 849.279 703.98 C 860.381 707.763 867.457 708.385 879.205 709.386 C 903.505 742.429 923.319 759.136 961.546 775.478 C 965.066 776.801 975.619 780.362 977.938 781.932 L 978.349 780.889 C 979.966 780.421 1003.82 784.59 1008.35 785.391 C 1029.47 789.126 1048.43 781.984 1067.97 781.203 L 1069.4 781.159 C 1075.32 779.836 1080.88 777.73 1086.36 775.172 C 1126.12 757.878 1142.8 743.769 1168.66 709.854 C 1179.53 708.586 1187.68 707.474 1198.5 705.375 L 1200.83 696.26 C 1203.14 685.545 1204.66 674.676 1205.38 663.74 C 1205.86 657.381 1205.91 630.516 1209.34 627.304 L 1211.19 628.137 C 1219.61 640.973 1218.96 675.033 1217.66 690.24 C 1216.94 693.492 1216.82 694.063 1216.65 697.55 C 1214.35 710.935 1212.29 723.119 1209.13 736.319 C 1240.35 724.133 1279.48 699.192 1298.01 670.996 C 1307.02 657.297 1312.42 638.768 1317.58 623.277 C 1318.44 620.7 1319.85 615.485 1322.1 614.416 L 1323.39 616.012 C 1325.23 624.55 1323.67 639.942 1321.51 648.488 C 1305.98 710.121 1253.88 732.883 1205.81 763.279 C 1170.29 785.741 1131.71 804.007 1119.26 846.09 C 1114.99 860.545 1111.99 874.879 1108.55 889.393 C 1159.88 863.448 1208.85 849.566 1237.85 794.165 C 1242.03 786.192 1257.58 743.287 1262.75 742.887 C 1264.56 748.691 1262.42 760.97 1261.32 767.025 C 1252.12 819.765 1216.86 857.797 1171.37 883.451 C 1138.9 901.767 1099.34 917.98 1077.41 949.507 C 1069.37 961.08 1066.6 971.874 1064.04 985.512 C 1082.37 975.163 1100.92 963.096 1121.16 956.327 C 1160.48 943.078 1205.53 934.125 1240.4 910.786 C 1326.47 853.189 1329.79 736.508 1345.15 644.548 C 1353.17 596.511 1384.64 549.932 1426.1 523.389 C 1427.09 526.563 1428.41 529.626 1430.05 532.525 C 1423.67 537.849 1417.12 543.206 1411.2 549.022 C 1359.24 600.112 1363.36 679.755 1353.44 746.784 C 1374.27 728.17 1388.27 710.158 1406.92 689.736 C 1421.1 674.449 1435.99 659.833 1451.53 645.935 C 1453.81 649.665 1456.6 653.064 1459.8 656.038 C 1435.47 677.889 1413.7 702.436 1394.91 729.207 C 1428.27 717.923 1451.54 713.666 1486.78 712.019 C 1487.32 716.614 1488.75 721.013 1486.85 724.305 C 1483.9 725.518 1481.85 725.548 1478.71 725.889 C 1440.55 727.795 1387.13 743.256 1360.67 772.627 C 1340.44 795.081 1332.36 831.476 1319.34 858.844 C 1311.08 876.217 1301.87 890.775 1291.95 907.118 C 1362.41 898.76 1410.45 872.825 1466.69 830.549 C 1468.21 834.343 1470.22 837.925 1472.66 841.207 C 1435.96 875.941 1419.1 886.544 1373.63 907.892 C 1384.46 910.114 1395.25 912.533 1405.98 915.147 C 1404.17 918.6 1402.79 922.263 1401.87 926.054 C 1384.34 920.893 1368.82 918.623 1350.42 919.181 C 1334.54 919.662 1320.76 926.27 1305.74 928.926 C 1273.32 934.66 1246.61 941.655 1216.06 954.063 C 1278.67 963.047 1297.1 990.008 1365.75 963.542 L 1366.02 964.8 L 1365.15 965.653 C 1360.88 969.897 1357.91 973.411 1356.68 979.515 C 1299.01 1002.17 1260.78 980.062 1204.01 973.299 C 1191.85 971.851 1178.52 970.923 1166.56 974.15 C 1151.67 978.165 1137.09 988.757 1124.54 997.546 C 1106.2 1010.4 1089.15 1027.84 1080.15 1048.62 C 1048.4 1121.96 1073.39 1278.21 1102.9 1351.11 C 1107.47 1362.4 1112.97 1373.27 1118.69 1384.01 C 1080.83 1408.87 1050.69 1431.75 1026.44 1471.06 C 1024.92 1472.42 1025.86 1471.85 1023.48 1472.5 L 1020.66 1469.73 C 997.093 1431.14 965.798 1407.92 928.751 1383.8 C 936.205 1372.18 941.793 1358.85 946.755 1345.99 C 974.126 1275.07 999.82 1119.57 968.016 1048.99 C 958.127 1027.05 941.282 1010.07 921.636 996.565 C 909.555 988.257 896.267 978.49 882.008 974.353 C 872.027 971.457 861.11 971.894 850.854 972.675 C 789.716 977.33 755.037 1004.16 691.213 980.131 C 690.732 979.559 690.697 979.621 690.487 978.793 C 688.841 972.298 684.838 968.639 681.388 963.4 C 747.747 988.528 765.803 966.207 831.001 953.745 C 799.902 940.431 775.542 936.177 743.127 929.404 C 728.87 926.426 713.594 919.657 698.73 918.829 C 680.247 917.798 664.606 920.2 647.128 925.671 C 644.533 924.04 642.826 918.14 641.631 915.06 C 651.713 912.614 661.771 910.073 671.805 907.437 C 625.9 885.716 611.787 874.905 575.322 840.481 C 577.569 837.361 579.429 833.98 580.861 830.412 C 639.063 871.756 682.092 899.436 756.126 907.488 C 747.321 891.306 738.64 879.303 730.019 861.538 C 715.866 832.373 706.218 793.061 684.322 770.098 C 656.171 740.576 601.506 726.517 562.019 725.759 L 559.417 724.705 C 558.34 720.914 559.53 716.149 560.145 712.108 C 596.273 713.703 617.36 717.171 651.936 728.324 C 633.129 701.942 611.457 677.723 587.319 656.11 C 590.758 653.046 593.733 649.499 596.153 645.58 C 614.372 661.912 631.595 679.323 647.73 697.718 C 661.923 713.584 677.758 733.229 694.025 746.441 C 684.56 668.592 687.649 583.361 617.69 532.206 C 619.45 529.08 620.851 525.765 621.866 522.324 z"/>
<path transform="translate(0,0)" fill="rgb(244,244,238)" d="M 977.938 781.932 L 978.349 780.889 C 979.966 780.421 1003.82 784.59 1008.35 785.391 C 1029.47 789.126 1048.43 781.984 1067.97 781.203 L 1069.4 781.159 C 1084.66 813.067 1088 848.114 1076.73 882 C 1069.45 903.876 1057.09 912.238 1042.43 928.943 C 1035.53 936.807 1029.2 946.378 1023.91 955.446 C 1010.04 931.791 998.566 923.882 982.918 904.012 C 956.298 870.21 962.812 818.313 977.938 781.932 z"/>
<path transform="translate(0,0)" fill="rgb(122,172,82)" d="M 1018.55 793.686 C 1027.36 790.643 1036.97 795.325 1040 804.139 C 1043.03 812.953 1038.34 822.555 1029.52 825.577 C 1020.72 828.594 1011.14 823.91 1008.11 815.111 C 1005.08 806.312 1009.75 796.724 1018.55 793.686 z"/>
<path transform="translate(0,0)" fill="rgb(244,244,238)" d="M 1168.66 709.854 C 1179.53 708.586 1187.68 707.474 1198.5 705.375 C 1184.71 749.909 1179.77 756.979 1139.21 779.847 C 1128.76 785.741 1113.96 803.476 1106.69 813.616 C 1100.77 799.49 1095.56 787.746 1086.36 775.172 C 1126.12 757.878 1142.8 743.769 1168.66 709.854 z"/>
<path transform="translate(0,0)" fill="rgb(244,244,238)" d="M 849.279 703.98 C 860.381 707.763 867.457 708.385 879.205 709.386 C 903.505 742.429 923.319 759.136 961.546 775.478 C 952.356 788.667 947.501 799.287 941.878 814.172 C 933.537 800.864 917.063 783.408 903.382 776.127 C 867.539 757.052 860.338 743.477 849.279 703.98 z"/>
<path transform="translate(0,0)" fill="rgb(93,92,92)" d="M 1238.02 1071.42 C 1242.24 1071.04 1249.65 1071.09 1254.11 1070.99 L 1277.67 1151.45 C 1214.77 1155.6 1178.98 1166.38 1122.89 1195.1 L 1110.57 1201.82 C 1103.4 1177.4 1096.47 1145.55 1090.27 1120.43 C 1136.85 1091.64 1183.14 1075.22 1238.02 1071.42 z"/>
<path transform="translate(0,0)" fill="rgb(18,69,114)" d="M 641.331 1601.13 C 690.192 1597.34 705.903 1641.04 688.419 1680.46 C 683.338 1691.92 671.494 1698.45 659.686 1701.65 C 634.62 1706.05 611.914 1694.67 606.067 1669.06 C 599.104 1638.56 607.919 1608.85 641.331 1601.13 z"/>
<path transform="translate(0,0)" fill="rgb(244,244,238)" d="M 644.159 1621.08 C 671.314 1620.02 674.125 1644.92 668.662 1666.97 C 666.852 1674.27 661.982 1678.75 655.346 1682.02 C 637.344 1685.43 629.507 1672.79 628.533 1656.51 C 627.618 1641.21 629.829 1628.52 644.159 1621.08 z"/>
<path transform="translate(0,0)" fill="rgb(18,69,114)" d="M 1000.76 1602.5 C 1021.17 1602.2 1051.49 1599.6 1066.98 1614.48 C 1087.43 1634.13 1084.85 1670.03 1066.23 1689.68 C 1048.4 1704.58 1021.15 1701.17 998.513 1700.95 L 998.353 1638.5 C 998.328 1629.15 997.768 1612.18 998.825 1603.68 L 1000.76 1602.5 z"/>
<path transform="translate(0,0)" fill="rgb(244,244,238)" d="M 1022 1621.91 C 1030.62 1621.72 1039.06 1621.54 1046.17 1627 C 1061.51 1638.77 1059.37 1660.5 1049.57 1674.7 C 1040.76 1682.34 1033.51 1681.43 1022.08 1681.87 L 1022 1621.91 z"/>
<path transform="translate(0,0)" fill="rgb(18,69,114)" d="M 803.546 1602.67 L 827.664 1602.84 L 822.934 1622.79 C 816.501 1648.8 811.229 1675.07 804.957 1701.19 L 779.472 1701.28 C 773.421 1680 770.048 1656.39 764.113 1636.08 C 759.769 1657.43 754.364 1679.84 749.469 1701.13 L 724.555 1701.38 C 716.494 1669.25 709.196 1635.34 701.713 1602.95 L 726.185 1602.81 C 730.443 1626.3 735.006 1650.08 738.085 1673.74 C 743.207 1650.02 748.719 1626.39 754.621 1602.85 L 775.971 1602.83 C 780.102 1621.31 786.719 1657.6 791.922 1674.18 C 794.215 1650.46 799.459 1626.25 803.546 1602.67 z"/>
<path transform="translate(0,0)" fill="rgb(46,150,195)" d="M 833.866 311.392 C 816.941 307.298 804.011 300.711 796.295 283.925 C 790.735 271.504 790.508 257.348 795.667 244.756 C 800.556 232.88 810.085 223.517 822.044 218.836 C 881.677 196.016 920.554 289.579 848.176 310.752 C 843.403 310.912 838.633 311.125 833.866 311.392 z"/>
<path transform="translate(0,0)" fill="rgb(122,172,82)" d="M 1451.53 645.935 C 1438.4 624.479 1444.13 596.52 1464.64 581.955 C 1485.15 567.39 1513.43 571.193 1529.37 590.658 C 1545.3 610.122 1543.44 638.601 1525.11 655.828 C 1506.78 673.055 1478.24 673.146 1459.8 656.038 C 1456.6 653.064 1453.81 649.665 1451.53 645.935 z"/>
<path transform="translate(0,0)" fill="rgb(46,150,195)" d="M 1199.99 310.142 C 1175.44 305.657 1158.48 283.027 1161.07 258.205 C 1163.65 233.382 1184.91 214.734 1209.86 215.404 C 1234.81 216.075 1255.03 235.837 1256.28 260.763 C 1257.53 285.688 1239.38 307.374 1214.63 310.536 C 1209.76 311.157 1204.82 311.025 1199.99 310.142 z"/>
<path transform="translate(0,0)" fill="rgb(46,150,195)" d="M 1466.69 830.549 C 1457.28 807.179 1467.64 780.523 1490.36 769.64 C 1513.08 758.757 1540.35 767.389 1552.67 789.364 C 1564.98 811.34 1558.11 839.102 1536.97 852.802 C 1515.83 866.501 1487.69 861.427 1472.66 841.207 C 1470.22 837.925 1468.21 834.343 1466.69 830.549 z"/>
<path transform="translate(0,0)" fill="rgb(122,172,82)" d="M 1426.1 523.389 C 1418.5 499.151 1431.21 473.208 1455.02 464.358 C 1478.83 455.507 1505.4 466.847 1515.48 490.161 C 1525.56 513.476 1515.62 540.601 1492.87 551.886 C 1470.11 563.17 1442.5 554.661 1430.05 532.525 C 1428.41 529.626 1427.09 526.563 1426.1 523.389 z"/>
<path transform="translate(0,0)" fill="rgb(46,150,195)" d="M 587.319 656.11 C 568.704 672.696 540.44 672.093 522.549 654.728 C 504.658 637.363 503.213 609.13 519.236 590.029 C 535.259 570.927 563.313 567.44 583.526 582.038 C 603.738 596.635 609.248 624.363 596.153 645.58 C 593.733 649.499 590.758 653.046 587.319 656.11 z"/>
<path transform="translate(0,0)" fill="rgb(46,150,195)" d="M 617.69 532.206 C 605.316 554.176 577.942 562.666 555.308 551.553 C 532.673 540.441 522.651 513.591 532.467 490.364 C 542.283 467.138 568.524 455.614 592.267 464.102 C 616.011 472.59 628.999 498.138 621.866 522.324 C 620.851 525.765 619.45 529.08 617.69 532.206 z"/>
<path transform="translate(0,0)" fill="rgb(46,150,195)" d="M 647.128 925.671 C 646.184 927.469 647.402 943.076 646.12 948.7 C 640.26 974.418 614.484 989.133 588.969 983.184 C 576.547 980.41 565.814 972.645 559.292 961.715 C 552.856 950.625 551.037 937.45 554.229 925.031 C 557.4 912.714 565.359 902.175 576.338 895.755 C 600.252 882.026 628.516 891.183 641.631 915.06 C 642.826 918.14 644.533 924.04 647.128 925.671 z"/>
<path transform="translate(0,0)" fill="rgb(46,150,195)" d="M 575.322 840.481 C 560.64 860.865 532.626 866.296 511.39 852.875 C 490.155 839.455 483.036 811.822 495.146 789.812 C 507.255 767.802 534.406 759.023 557.109 769.777 C 579.812 780.53 590.22 807.1 580.861 830.412 C 579.429 833.98 577.569 837.361 575.322 840.481 z"/>
<path transform="translate(0,0)" fill="rgb(122,172,82)" d="M 1021.12 174.594 C 1047.22 172.967 1069.72 192.729 1071.47 218.813 C 1073.23 244.897 1053.58 267.497 1027.51 269.384 C 1001.25 271.283 978.453 251.465 976.684 225.197 C 974.915 198.929 994.847 176.233 1021.12 174.594 z"/>
<path transform="translate(0,0)" fill="rgb(122,172,82)" d="M 1405.98 915.147 C 1417.63 892.985 1444.51 883.71 1467.35 893.972 C 1490.19 904.234 1501.1 930.492 1492.27 953.918 C 1483.43 977.344 1457.9 989.855 1433.97 982.48 C 1410.04 975.105 1395.98 950.389 1401.87 926.054 C 1402.79 922.263 1404.17 918.6 1405.98 915.147 z"/>
<path transform="translate(0,0)" fill="rgb(18,69,114)" d="M 1396.57 1602.48 C 1425.06 1602.26 1470.85 1596.58 1462.82 1642.67 C 1461.32 1651.33 1454.21 1657.84 1447.04 1662.32 C 1453.81 1675.16 1461.04 1688.08 1468.01 1700.84 L 1441.81 1700.95 C 1437.41 1693.91 1428.63 1675.12 1424.51 1666.92 L 1412.08 1666.59 L 1412.05 1700.95 L 1388.48 1700.9 C 1388.64 1680.42 1388.67 1659.93 1388.56 1639.44 C 1388.53 1629.38 1388 1613.45 1389.02 1603.79 C 1391.48 1602.07 1392.96 1602.65 1396.57 1602.48 z"/>
<path transform="translate(0,0)" fill="rgb(244,244,238)" d="M 1412.05 1621.32 C 1426.84 1621.15 1451.21 1623.03 1436.11 1644.48 C 1428.01 1649.15 1421.53 1648.07 1412.07 1648.02 L 1412.05 1621.32 z"/>
<path transform="translate(0,0)" fill="rgb(158,208,166)" d="M 1486.78 712.019 C 1489.41 697.133 1492.8 685.994 1506.24 676.644 C 1516.01 669.834 1528.14 667.305 1539.83 669.641 C 1551.38 671.905 1561.51 678.776 1567.89 688.672 C 1574.1 698.31 1576.65 711.32 1574.23 722.559 C 1571.73 734.085 1564.58 744.068 1554.47 750.149 C 1536.39 760.787 1509.85 756.739 1497 739.762 C 1488.59 728.656 1494.08 725.842 1478.71 725.889 C 1481.85 725.548 1483.9 725.518 1486.85 724.305 C 1488.75 721.013 1487.32 716.614 1486.78 712.019 z"/>
<path transform="translate(0,0)" fill="rgb(158,208,166)" d="M 562.019 725.759 C 561.516 725.848 558.422 726.613 558.416 726.623 C 550.503 739.774 543.289 751.252 527.109 755.422 C 516.644 758.118 502.937 756.125 493.049 749.866 C 483.059 743.543 476.293 733.631 473.7 721.727 C 471.133 710.327 473.377 698.374 479.903 688.681 C 486.877 678.315 497.878 671.347 510.23 669.471 C 521.851 667.857 533.637 670.929 542.993 678.009 C 555.068 687.191 558.037 698.186 560.145 712.108 C 559.53 716.149 558.34 720.914 559.417 724.705 L 562.019 725.759 z"/>
<path transform="translate(0,0)" fill="rgb(158,208,166)" d="M 920.799 262.337 C 894.966 258.643 879.041 237.209 883.379 211.397 C 885.382 199.803 892.026 189.526 901.777 182.941 C 911.441 176.405 923.36 174.111 934.76 176.594 C 974.519 184.987 981.598 237.502 947.659 256.846 C 944.47 258.663 933.788 262.289 932.73 263.67 L 931.837 262.643 C 928.534 261.614 924.372 262.149 920.799 262.337 z"/>
<path transform="translate(0,0)" fill="rgb(158,208,166)" d="M 653.252 456.837 C 636.02 472.002 609.968 471.166 593.744 454.927 C 577.519 438.688 576.707 412.636 591.888 395.417 C 607.07 378.199 633.018 375.741 651.162 389.804 C 669.306 403.866 673.398 429.607 660.511 448.604 C 658.449 451.643 656.01 454.41 653.252 456.837 z"/>
<path transform="translate(0,0)" fill="rgb(158,208,166)" d="M 1387.61 449.254 C 1374.31 430.489 1377.93 404.614 1395.86 390.213 C 1413.79 375.812 1439.84 377.866 1455.29 394.9 C 1470.74 411.935 1470.26 438.056 1454.18 454.505 C 1438.11 470.954 1412 472.039 1394.62 456.982 C 1391.98 454.697 1389.63 452.102 1387.61 449.254 z"/>
<path transform="translate(0,0)" fill="rgb(158,208,166)" d="M 1115.35 262.273 C 1073.92 253.357 1064.29 200.76 1100.95 181.318 C 1111.56 175.693 1123.97 174.498 1135.46 177.993 C 1146.62 181.38 1155.85 189.293 1160.89 199.805 C 1170.72 220.254 1162.98 249.217 1140.85 258.265 C 1136.24 260.147 1131.88 260.748 1127.39 263.059 C 1125.07 261.562 1118.3 262.168 1115.35 262.273 z"/>
<path transform="translate(0,0)" fill="rgb(18,69,114)" d="M 508.218 1602.82 C 515.486 1602.56 523.591 1602.68 530.931 1602.62 C 543.718 1622.26 557.071 1644.28 567.195 1665.38 C 566.413 1644.48 566.631 1623.79 566.729 1602.88 L 589.015 1602.86 C 589.046 1615.8 590.994 1695.57 587.811 1701 L 566.211 1701.05 C 553.884 1678.96 541.396 1658.34 529.374 1635.87 C 532.166 1657.85 531.645 1678.92 531.093 1700.99 L 508.745 1700.96 C 508.849 1668.24 508.673 1635.53 508.218 1602.82 z"/>
<path transform="translate(0,0)" fill="rgb(18,69,114)" d="M 1131.19 1601.23 C 1148.35 1599.42 1159.3 1603.36 1172.52 1613.79 C 1167.7 1618.89 1163.21 1624.93 1158.88 1630.5 C 1154.54 1625.85 1149.84 1622.92 1143.53 1621.55 C 1137.84 1620.34 1131.9 1621.61 1127.2 1625.04 C 1107.97 1638.8 1111.38 1682.97 1140.06 1682.71 C 1154.64 1682.57 1152.97 1674.74 1152.74 1663.79 L 1136.08 1663.87 L 1136.19 1645.15 L 1158.25 1645.06 L 1174.81 1644.98 C 1174.96 1662.61 1174.83 1680.23 1174.41 1697.86 C 1169.79 1699.26 1161.63 1702.43 1157.56 1700.73 L 1157.53 1696.66 C 1152.75 1696.82 1146.8 1701.67 1142.11 1702.3 C 1095.88 1708.41 1078.61 1653.27 1099.99 1620.06 C 1107.61 1608.23 1118.66 1603.59 1131.19 1601.23 z"/>
<path transform="translate(0,0)" fill="rgb(18,69,114)" d="M 497.675 1602.47 C 497.595 1604.41 469.292 1639.07 466.183 1642.82 L 501.712 1701 L 474.149 1701.03 C 468.851 1689.67 458.305 1672.13 451.673 1661.2 L 441.022 1675.29 L 440.958 1687.75 L 440.919 1700.9 L 417.013 1700.91 C 417.638 1668.75 417.129 1634.98 417.146 1602.7 L 441.023 1602.74 L 441.03 1643.01 L 471.324 1602.63 C 479.932 1602.77 489.028 1602.54 497.675 1602.47 z"/>
<path transform="translate(0,0)" fill="rgb(18,69,114)" d="M 963.055 1602.5 L 981.404 1602.69 C 981.61 1608.94 981.479 1615.77 981.466 1622.08 L 939.059 1622.29 L 939.009 1640.96 L 975.147 1641.02 L 975.162 1660.47 L 939.037 1660.52 L 938.999 1681.07 L 969.5 1681.01 L 982.935 1681.02 L 982.768 1700.96 L 915.372 1700.94 C 914.962 1668.42 915.254 1635.26 915.213 1602.68 L 963.055 1602.5 z"/>
<path transform="translate(0,0)" fill="rgb(18,69,114)" d="M 1191.18 1602.3 L 1256.67 1602.56 L 1256.53 1622.18 C 1242.87 1622.43 1228.65 1622.23 1214.94 1622.24 L 1214.72 1641.09 L 1251 1641.09 L 1251.07 1660.81 C 1243.8 1660.68 1220.83 1659.83 1215.48 1661.56 L 1214.82 1663.75 L 1214.79 1681.21 L 1258.05 1681.16 L 1258.04 1701.02 L 1191.04 1700.96 L 1191.18 1602.3 z"/>
<path transform="translate(0,0)" fill="rgb(18,69,114)" d="M 1563.08 1602.72 L 1628.41 1602.63 L 1628.29 1622.32 C 1614.62 1622.58 1600.39 1622.36 1586.61 1622.48 L 1586.75 1641.06 L 1622.81 1641.11 L 1622.75 1660.23 C 1615.99 1660.17 1592.23 1659.28 1587.4 1661.81 L 1586.93 1664.75 L 1586.79 1681.12 L 1630.42 1681.15 L 1630.09 1701.01 L 1563.09 1700.89 L 1563.08 1602.72 z"/>
<path transform="translate(0,0)" fill="rgb(18,69,114)" d="M 1479.89 1602.68 C 1500.04 1601.97 1525.14 1602.68 1545.65 1602.74 C 1545.65 1609.25 1545.61 1615.76 1545.53 1622.26 L 1503.37 1622.22 L 1503.16 1641.16 L 1539.59 1641.17 L 1539.89 1660.51 C 1532.61 1660.48 1510.05 1660.01 1504.04 1661.2 L 1503.11 1662.94 L 1503.11 1681.21 L 1547.1 1681.22 L 1547 1700.96 L 1479.72 1700.91 C 1480.04 1668.17 1480.1 1635.43 1479.89 1602.68 z"/>
<path transform="translate(0,0)" fill="rgb(18,69,114)" d="M 1297.31 1602.43 L 1376.17 1602.76 L 1376.11 1622.22 L 1348.73 1622.31 L 1348.77 1674.13 L 1348.67 1700.97 L 1325.11 1700.92 L 1325.04 1622.1 L 1297.31 1621.99 L 1297.31 1602.43 z"/>
<path transform="translate(0,0)" fill="rgb(18,69,114)" d="M 839.119 1602.92 L 862.896 1602.95 L 862.878 1681.04 L 902.779 1681.02 L 902.228 1700.77 C 887.071 1701.9 855.489 1701.02 838.894 1701.01 L 839.119 1602.92 z"/>
<path transform="translate(0,0)" fill="rgb(158,208,166)" d="M 735.006 239.833 C 744.459 236.95 754.732 239.37 761.904 246.17 C 769.075 252.971 772.037 263.101 769.66 272.694 C 767.282 282.286 759.931 289.86 750.414 292.524 C 735.934 296.577 720.888 288.226 716.668 273.794 C 712.448 259.362 720.624 244.22 735.006 239.833 z"/>
<path transform="translate(0,0)" fill="rgb(158,208,166)" d="M 1299.59 239.47 C 1314.22 236.54 1328.47 245.987 1331.48 260.607 C 1334.48 275.228 1325.1 289.526 1310.5 292.6 C 1295.79 295.696 1281.37 286.24 1278.35 271.517 C 1275.32 256.794 1284.85 242.42 1299.59 239.47 z"/>
<path transform="translate(0,0)" fill="rgb(93,92,92)" d="M 691.332 1248.45 C 694.995 1248.43 694.685 1247.89 697.49 1249.41 C 698.532 1252.34 696.472 1256.65 695.365 1259.89 C 632.224 1262 578.22 1269.14 516.091 1278.71 C 511.784 1279.38 510.941 1280.3 507.801 1278.76 C 507.301 1275.53 510.288 1270.76 511.863 1267.55 C 531.151 1265.02 550.927 1261.45 570.461 1258.82 C 610.529 1253.14 650.881 1249.67 691.332 1248.45 z"/>
<path transform="translate(0,0)" fill="rgb(93,92,92)" d="M 1349.07 1248.64 C 1414.83 1248.8 1471.7 1257.29 1536.2 1267.9 C 1538.11 1271.89 1539.91 1276.36 1541.66 1280.45 C 1533.56 1279.39 1524.61 1277.81 1516.56 1276.33 C 1461.8 1266.23 1408.21 1261.91 1352.66 1259.99 L 1349.07 1248.64 z"/>
<path transform="translate(0,0)" fill="rgb(93,92,92)" d="M 1288.57 1279.41 C 1296.98 1278.64 1306.78 1278.82 1315.34 1278.77 L 1317.83 1290.28 C 1257.64 1289.33 1211.9 1302.47 1158.25 1327.01 C 1152.3 1329.76 1145.5 1333.47 1139.59 1336.52 L 1136.62 1324.56 C 1180.97 1299.16 1237.88 1283.55 1288.57 1279.41 z"/>
<path transform="translate(0,0)" fill="rgb(93,92,92)" d="M 733.527 1278.93 C 796.185 1278.25 857.903 1294.21 912.372 1325.19 L 909.419 1336.81 C 856.166 1304.92 792.647 1289.64 730.844 1290.23 L 733.527 1278.93 z"/>
<path transform="translate(0,0)" fill="rgb(93,92,92)" d="M 1297.73 1243.44 C 1301.04 1243.13 1301.23 1242.94 1304.54 1243.81 C 1307.29 1246.5 1307.53 1251.03 1308.29 1255.01 C 1247.98 1254.06 1191.14 1272.03 1138.47 1300.17 C 1136 1301.64 1136.08 1301.88 1133.27 1301.98 C 1130.81 1299.59 1130.72 1294.83 1130.18 1291.18 C 1180.51 1261.75 1239.85 1246.49 1297.73 1243.44 z"/>
<path transform="translate(0,0)" fill="rgb(93,92,92)" d="M 685.648 1209.43 C 693.048 1208.8 704 1208.96 711.668 1208.84 C 710.941 1213.33 709.86 1216.49 708.531 1220.79 C 652.277 1221.35 604.212 1227.66 548.721 1236.71 L 525.667 1240.91 C 527.273 1236.64 529.215 1232.28 531.011 1228.07 C 540.227 1225.91 555.798 1223.84 565.483 1222.28 C 605.284 1215.89 645.395 1211.6 685.648 1209.43 z"/>
<path transform="translate(0,0)" fill="rgb(93,92,92)" d="M 743.318 1243.02 C 810.076 1245.19 861.225 1259.61 919.506 1291.95 C 918.657 1295.89 917.468 1299.9 916.386 1303.8 C 863.155 1271.66 802.131 1254.73 739.95 1254.85 C 740.898 1250.85 742.133 1246.96 743.318 1243.02 z"/>
<path transform="translate(0,0)" fill="rgb(93,92,92)" d="M 1336.3 1208.9 C 1388.41 1208.63 1466.42 1217.48 1517.27 1228.5 L 1523.03 1241.43 C 1468.23 1228.86 1395.68 1220.98 1339.99 1220.93 L 1336.3 1208.9 z"/>
<path transform="translate(0,0)" fill="rgb(93,92,92)" d="M 1281.07 1209.42 C 1285.08 1209.03 1291.44 1209.09 1295.65 1209 L 1298.51 1220.42 C 1236.74 1221.91 1190.47 1235.52 1136.17 1263.75 L 1125.62 1270.07 L 1122.32 1257.97 C 1170.93 1230.09 1225.18 1213.5 1281.07 1209.42 z"/>
<path transform="translate(0,0)" fill="rgb(93,92,92)" d="M 693.412 1172.42 C 702.843 1171.72 714.358 1171.86 723.95 1171.73 L 720.884 1183.34 C 667.258 1184.44 623.161 1189.19 570.144 1198.18 C 562.156 1199.18 551.657 1201.32 543.519 1202.71 C 545.185 1198.38 547.122 1194.07 548.969 1189.8 C 596.66 1180.7 644.922 1174.89 693.412 1172.42 z"/>
<path transform="translate(0,0)" fill="rgb(93,92,92)" d="M 752.747 1208.82 C 811.834 1209.93 875.949 1227.34 926.412 1258.44 C 925.934 1261.9 924.614 1266.77 923.774 1270.29 C 866.876 1236.09 815.723 1222.44 750.093 1220.22 L 752.747 1208.82 z"/>
<path transform="translate(0,0)" fill="rgb(93,92,92)" d="M 1270.64 1175.42 C 1274.32 1174.94 1281.58 1175.04 1285.56 1174.97 C 1286.12 1177.75 1287.39 1181.78 1286.81 1184.52 C 1286.44 1186.31 1249.56 1188.6 1244.21 1189.61 C 1203.02 1197.38 1165.17 1210.62 1128.53 1231.1 L 1118.21 1236.85 C 1117.17 1233.11 1116.23 1228.72 1115.32 1224.89 C 1171.34 1195.74 1205.35 1180.92 1270.64 1175.42 z"/>
<path transform="translate(0,0)" fill="rgb(93,92,92)" d="M 763.577 1174.15 C 834.465 1179.59 872.265 1190.48 934.032 1225.7 C 933.162 1229.7 932.259 1233.7 931.323 1237.69 C 879.459 1205.19 821.736 1186.69 760.265 1185.94 L 763.577 1174.15 z"/>
<path transform="translate(0,0)" fill="rgb(93,92,92)" d="M 1324.34 1171.75 C 1373.24 1171.86 1451.43 1178.91 1499.22 1190.35 L 1504.51 1203.41 C 1454.83 1190.37 1378.85 1184.25 1327.81 1183.6 L 1324.34 1171.75 z"/>
<path transform="translate(0,0)" fill="rgb(93,92,92)" d="M 773.499 1140.05 C 835.935 1143.75 888.314 1158.59 942.598 1190.45 L 940.254 1201.7 C 884.784 1170.97 834.577 1153 770.212 1151.85 C 771.024 1148 772.369 1143.85 773.499 1140.05 z"/>
<path transform="translate(0,0)" fill="rgb(93,92,92)" d="M 783.65 1105.9 C 838.529 1107.5 903.992 1127.45 950.735 1156.68 C 949.894 1160.4 948.695 1164.5 947.7 1168.23 C 892.468 1135.24 844.222 1120.73 780.102 1117.13 L 783.65 1105.9 z"/>
<path transform="translate(0,0)" fill="rgb(93,92,92)" d="M 696.228 1137.42 C 708.32 1136.58 723.23 1136.71 735.571 1136.55 L 732.365 1147.92 C 686.042 1148.6 639.846 1152.97 594.218 1161 L 560.649 1166.78 L 566.105 1153.44 C 581.306 1151.92 603.992 1147.55 619.923 1145.23 C 645.233 1141.52 670.692 1138.91 696.228 1137.42 z"/>
<path transform="translate(0,0)" fill="rgb(93,92,92)" d="M 793.565 1072.04 C 852.231 1074.69 909.174 1092.68 958.71 1124.22 L 955.323 1135.17 C 901.245 1102.16 854.248 1086.69 790.345 1083.45 L 793.565 1072.04 z"/>
<path transform="translate(0,0)" fill="rgb(93,92,92)" d="M 1312.74 1136.58 C 1357.98 1137.58 1398.09 1139.27 1443.02 1147.28 C 1456.11 1149.61 1469.11 1151.06 1482.14 1154.31 C 1483.99 1158.42 1485.78 1163.28 1487.46 1167.52 C 1432.39 1154.31 1372.29 1149.3 1315.8 1147.73 L 1312.74 1136.58 z"/>
<path transform="translate(0,0)" fill="rgb(93,92,92)" d="M 714.477 1102.5 C 725.285 1101.83 736.351 1101.81 747.196 1101.65 L 743.909 1112.96 C 699.478 1112.83 651.604 1119.47 607.766 1125.93 L 577.41 1130.89 C 579.054 1126.43 581.015 1122.29 582.973 1117.97 C 627.801 1110.8 669.088 1104.85 714.477 1102.5 z"/>
<path transform="translate(0,0)" fill="rgb(46,150,195)" d="M 769.49 291.666 C 782.478 287.995 796.004 295.449 799.837 308.391 C 803.669 321.333 796.384 334.951 783.491 338.944 C 775.007 341.572 765.765 339.433 759.297 333.346 C 752.83 327.258 750.136 318.163 752.246 309.535 C 754.356 300.908 760.943 294.082 769.49 291.666 z"/>
<path transform="translate(0,0)" fill="rgb(46,150,195)" d="M 1265.69 291.389 C 1274.27 289.16 1283.38 291.715 1289.55 298.078 C 1295.72 304.441 1297.99 313.629 1295.5 322.133 C 1293 330.637 1286.13 337.144 1277.5 339.167 C 1264.38 342.245 1251.22 334.196 1247.99 321.113 C 1244.76 308.03 1252.65 294.779 1265.69 291.389 z"/>
<path transform="translate(0,0)" fill="rgb(93,92,92)" d="M 1301.45 1101.97 C 1348.22 1101.54 1419.09 1108.3 1464.92 1118.44 C 1466.76 1122.34 1468.57 1126.96 1470.27 1130.99 C 1415.6 1120.77 1360.55 1112.98 1304.82 1112.97 L 1301.45 1101.97 z"/>
<path transform="translate(0,0)" fill="rgb(93,92,92)" d="M 725.879 1068.43 C 736.65 1067.79 747.873 1067.89 758.694 1067.82 L 754.945 1078.94 C 711.453 1078.79 666.029 1084.78 623.169 1091.5 L 593.459 1096.32 C 595.369 1091.45 597.165 1088.2 599.603 1083.62 C 639.721 1076.66 685.594 1070.53 725.879 1068.43 z"/>
<path transform="translate(0,0)" fill="rgb(93,92,92)" d="M 1290.87 1068.45 C 1346.12 1068.17 1394.42 1074.53 1448.63 1083.98 C 1450.44 1087.86 1452.15 1092.22 1453.82 1096.2 C 1401.07 1085.98 1347.54 1080.29 1293.81 1079.19 C 1291.75 1074.24 1291.32 1073.65 1290.87 1068.45 z"/>
<path transform="translate(0,0)" fill="rgb(158,208,166)" d="M 1282.64 758.41 C 1294.81 755.116 1307.35 762.318 1310.64 774.492 C 1313.92 786.667 1306.72 799.201 1294.54 802.481 C 1282.37 805.76 1269.85 798.558 1266.57 786.393 C 1263.28 774.228 1270.48 761.702 1282.64 758.41 z"/>
<path transform="translate(0,0)" fill="rgb(158,208,166)" d="M 756.38 758.325 C 768.373 756.899 779.352 765.199 781.25 777.127 C 783.148 789.054 775.288 800.352 763.445 802.719 C 755.356 804.336 747.032 801.396 741.753 795.059 C 736.473 788.722 735.086 780.003 738.137 772.34 C 741.189 764.677 748.189 759.298 756.38 758.325 z"/>
<path transform="translate(0,0)" fill="rgb(158,208,166)" d="M 691.213 980.131 C 689.599 983.441 689.707 987.63 688.219 990.795 C 683.038 1001.81 671.083 1008.14 659.825 1002.76 C 653.739 999.82 649.147 994.484 647.147 988.028 C 640.338 965.263 665.925 953.887 681.388 963.4 C 684.838 968.639 688.841 972.298 690.487 978.793 C 690.697 979.621 690.732 979.559 691.213 980.131 z"/>
<path transform="translate(0,0)" fill="rgb(158,208,166)" d="M 1172.35 798.523 C 1184.31 797.559 1194.83 806.375 1195.97 818.321 C 1197.11 830.267 1188.45 840.918 1176.53 842.239 C 1168.65 843.111 1160.92 839.673 1156.29 833.243 C 1151.66 826.812 1150.85 818.386 1154.18 811.194 C 1157.5 804.002 1164.45 799.16 1172.35 798.523 z"/>
<path transform="translate(0,0)" fill="rgb(158,208,166)" d="M 1365.75 963.542 C 1378.62 956.931 1391.79 958.98 1398.11 972.99 C 1400.94 979.136 1400.95 986.212 1398.13 992.365 C 1389.11 1012.58 1357.94 1007.18 1356.68 979.515 C 1357.91 973.411 1360.88 969.897 1365.15 965.653 L 1366.02 964.8 L 1365.75 963.542 z"/>
<path transform="translate(0,0)" fill="rgb(46,150,195)" d="M 646.394 811.626 C 657.973 809.365 669.267 816.66 671.967 828.144 C 674.667 839.628 667.806 851.192 656.433 854.326 C 648.681 856.462 640.382 854.189 634.802 848.401 C 629.221 842.613 627.252 834.236 629.669 826.568 C 632.086 818.9 638.503 813.167 646.394 811.626 z"/>
<path transform="translate(0,0)" fill="rgb(46,150,195)" d="M 1419.2 752.535 C 1430.71 748.886 1443 755.242 1446.68 766.745 C 1450.35 778.247 1444.03 790.553 1432.53 794.254 C 1421 797.967 1408.65 791.613 1404.96 780.075 C 1401.27 768.536 1407.65 756.196 1419.2 752.535 z"/>
<path transform="translate(0,0)" fill="rgb(158,208,166)" d="M 1237.5 852.66 C 1249.31 852.169 1259.37 861.176 1260.19 872.976 C 1261 884.776 1252.27 895.077 1240.5 896.21 C 1232.59 896.971 1224.89 893.379 1220.4 886.83 C 1215.91 880.281 1215.32 871.809 1218.88 864.706 C 1222.43 857.603 1229.56 852.99 1237.5 852.66 z"/>
<path transform="translate(0,0)" fill="rgb(46,150,195)" d="M 1394.84 811.576 C 1406.8 810.337 1417.51 819.004 1418.79 830.958 C 1420.07 842.913 1411.44 853.651 1399.49 854.974 C 1387.48 856.302 1376.68 847.621 1375.39 835.607 C 1374.1 823.593 1382.82 812.821 1394.84 811.576 z"/>
<path transform="translate(0,0)" fill="rgb(46,150,195)" d="M 1412.29 608.641 C 1424.06 606.889 1435.06 614.892 1437.02 626.629 C 1438.98 638.367 1431.17 649.51 1419.47 651.676 C 1411.71 653.111 1403.79 650.249 1398.74 644.191 C 1393.69 638.133 1392.3 629.822 1395.11 622.453 C 1397.92 615.083 1404.49 609.803 1412.29 608.641 z"/>
<path transform="translate(0,0)" fill="rgb(46,150,195)" d="M 625.806 609.553 C 632.504 607.538 639.763 608.858 645.322 613.104 C 650.881 617.35 654.065 624.006 653.882 630.998 C 653.628 640.732 646.951 649.118 637.52 651.544 C 626.026 654.501 614.278 647.72 611.089 636.288 C 607.899 624.856 614.441 612.973 625.806 609.553 z"/>
<path transform="translate(0,0)" fill="rgb(158,208,166)" d="M 802.995 853.561 C 810.55 851.249 818.765 853.21 824.462 858.684 C 830.159 864.159 832.446 872.289 830.437 879.93 C 828.429 887.572 822.44 893.527 814.787 895.493 C 808.368 897.142 801.546 895.778 796.254 891.788 C 790.961 887.798 787.773 881.616 787.591 874.99 C 787.322 865.196 793.625 856.427 802.995 853.561 z"/>
<path transform="translate(0,0)" fill="rgb(158,208,166)" d="M 868.207 799.59 C 879.778 796.571 891.615 803.46 894.706 815.012 C 897.797 826.564 890.982 838.444 879.45 841.608 C 867.815 844.799 855.806 837.91 852.687 826.256 C 849.569 814.601 856.533 802.635 868.207 799.59 z"/>
<path transform="translate(0,0)" fill="rgb(46,150,195)" d="M 616.751 752.516 C 628.398 749.513 640.269 756.541 643.238 768.197 C 646.206 779.853 639.142 791.703 627.478 794.637 C 615.862 797.558 604.073 790.531 601.117 778.924 C 598.161 767.317 605.153 755.506 616.751 752.516 z"/>
<path transform="translate(0,0)" fill="rgb(158,208,166)" d="M 1373.51 502.501 C 1383.45 499.546 1393.92 505.17 1396.94 515.092 C 1399.96 525.014 1394.41 535.517 1384.51 538.607 C 1374.51 541.727 1363.89 536.11 1360.83 526.091 C 1357.78 516.073 1363.47 505.485 1373.51 502.501 z"/>
<path transform="translate(0,0)" fill="rgb(158,208,166)" d="M 664.035 502.421 C 673.962 499.44 684.419 505.109 687.34 515.054 C 690.261 524.999 684.53 535.422 674.567 538.283 C 664.689 541.12 654.373 535.448 651.477 525.587 C 648.581 515.725 654.191 505.376 664.035 502.421 z"/>
<path transform="translate(0,0)" fill="rgb(122,172,82)" d="M 960.362 257.712 C 969.131 254.829 978.593 259.501 981.635 268.216 C 984.677 276.931 980.179 286.476 971.521 289.677 C 965.778 291.8 959.337 290.657 954.675 286.689 C 950.013 282.72 947.857 276.543 949.036 270.535 C 950.215 264.528 954.546 259.624 960.362 257.712 z"/>
<path transform="translate(0,0)" fill="rgb(122,172,82)" d="M 1076.87 257.534 C 1085.75 254.541 1095.37 259.348 1098.32 268.248 C 1101.26 277.148 1096.4 286.743 1087.48 289.635 C 1078.64 292.504 1069.13 287.69 1066.21 278.861 C 1063.29 270.032 1068.06 260.502 1076.87 257.534 z"/>
</svg>